<svg xmlns="http://www.w3.org/2000/svg" viewBox="0 0 800 450" fill="none">
  <rect width="800" height="450" fill="#0a0a0f"/>
  <rect x="0" y="0" width="800" height="450" fill="url(#bg)" opacity="0.5"/>
  <rect x="40" y="50" width="720" height="350" rx="16" fill="#151522" stroke="rgba(0,255,245,0.2)" stroke-width="1"/>
  <rect x="60" y="70" width="100" height="28" rx="6" fill="url(#logo)"/>
  <rect x="480" y="76" width="70" height="16" rx="4" fill="#252540"/>
  <rect x="560" y="76" width="70" height="16" rx="4" fill="#252540"/>
  <rect x="640" y="76" width="70" height="16" rx="4" fill="#252540"/>
  <rect x="60" y="130" width="420" height="40" rx="6" fill="url(#hero)"/>
  <rect x="60" y="185" width="320" height="14" rx="4" fill="#252540"/>
  <rect x="60" y="210" width="280" height="14" rx="4" fill="#1a1a2e"/>
  <rect x="60" y="245" width="160" height="40" rx="8" fill="url(#cta)"/>
  <rect x="520" y="130" width="220" height="200" rx="12" fill="#1a1a2e" stroke="rgba(0,212,255,0.2)"/>
  <rect x="540" y="150" width="180" height="120" rx="8" fill="#252540"/>
  <rect x="60" y="310" width="200" height="70" rx="10" fill="#1a1a2e"/>
  <rect x="280" y="310" width="200" height="70" rx="10" fill="#1a1a2e"/>
  <rect x="500" y="350" width="200" height="70" rx="10" fill="#1a1a2e"/>
  <defs>
    <linearGradient id="bg" x1="0" y1="0" x2="800" y2="450"><stop stop-color="#00fff5" stop-opacity="0.06"/><stop offset="1" stop-color="#00d4ff" stop-opacity="0.06"/></linearGradient>
    <linearGradient id="logo" x1="60" y1="70" x2="160" y2="98"><stop stop-color="#00d4ff"/><stop offset="1" stop-color="#a855f7"/></linearGradient>
    <linearGradient id="hero" x1="60" y1="130" x2="480" y2="170"><stop stop-color="#00d4ff" stop-opacity="0.3"/><stop offset="1" stop-color="#a855f7" stop-opacity="0.2"/></linearGradient>
    <linearGradient id="cta" x1="60" y1="245" x2="220" y2="285"><stop stop-color="#00d4ff"/><stop offset="1" stop-color="#a855f7"/></linearGradient>
  </defs>
</svg>
